<svg width="21" height="21" viewBox="0 0 21 21" fill="none" xmlns="http://www.w3.org/2000/svg">
<g clip-path="url(#clip0_7_36)">
<path d="M15.3125 4.375H14C13.5168 4.375 13.125 4.76675 13.125 5.25V15.75C13.125 16.2332 13.5168 16.625 14 16.625H15.3125C15.7957 16.625 16.1875 16.2332 16.1875 15.75V5.25C16.1875 4.76675 15.7957 4.375 15.3125 4.375Z" fill="#BAD6F8"/>
<path d="M18.1563 6.5625H17.0625V14.4375H18.1563C18.3303 14.4375 18.4972 14.3684 18.6203 14.2453C18.7434 14.1222 18.8125 13.9553 18.8125 13.7812V7.21875C18.8125 7.0447 18.7434 6.87778 18.6203 6.75471C18.4972 6.63164 18.3303 6.5625 18.1563 6.5625Z" fill="#BAD6F8"/>
<path d="M7 4.375H5.6875C5.20425 4.375 4.8125 4.76675 4.8125 5.25V15.75C4.8125 16.2332 5.20425 16.625 5.6875 16.625H7C7.48325 16.625 7.875 16.2332 7.875 15.75V5.25C7.875 4.76675 7.48325 4.375 7 4.375Z" fill="#BAD6F8"/>
<path d="M2.84375 6.5625H3.9375V14.4375H2.84375C2.6697 14.4375 2.50278 14.3684 2.37971 14.2453C2.25664 14.1222 2.1875 13.9553 2.1875 13.7812V7.21875C2.1875 7.0447 2.25664 6.87778 2.37971 6.75471C2.50278 6.63164 2.6697 6.5625 2.84375 6.5625Z" fill="#BAD6F8"/>
<path d="M1.3125 8.75C0.964403 8.75 0.630564 8.88828 0.384422 9.13442C0.138281 9.38056 0 9.7144 0 10.0625L0 10.9375C0 11.2856 0.138281 11.6194 0.384422 11.8656C0.630564 12.1117 0.964403 12.25 1.3125 12.25V8.75Z" fill="#BAD6F8"/>
<path d="M19.6875 8.75V12.25C20.0356 12.25 20.3694 12.1117 20.6156 11.8656C20.8617 11.6194 21 11.2856 21 10.9375V10.0625C21 9.7144 20.8617 9.38056 20.6156 9.13442C20.3694 8.88828 20.0356 8.75 19.6875 8.75Z" fill="#BAD6F8"/>
<path d="M12.25 8.75H8.75V12.25H12.25V8.75Z" fill="#BAD6F8"/>
</g>
<defs>
<clipPath id="clip0_7_36">
<rect width="21" height="21" fill="white"/>
</clipPath>
</defs>
</svg>
